<svg height="512pt" viewBox="-8 0 512 512.00015" width="512pt"
  xmlns="http://www.w3.org/2000/svg">
  <path d="m478.070312 472.558594-215.703124-447.527344c-3.988282-7.960938-13.675782-11.175781-21.632813-7.1875-3.109375 1.558594-5.628906 4.078125-7.1875 7.1875l-215.707031 447.527344c-3.976563 7.960937-.746094 17.644531 7.214844 21.621094 2.234374 1.117187 4.699218 1.699218 7.199218 1.703124h431.40625c8.902344-.007812 16.113282-7.226562 16.109375-16.128906 0-2.5-.582031-4.960937-1.699219-7.195312zm0 0" fill="#ffc477"/>
  <g fill="#3e3d42">
    <path d="m492.59375 465.5625-215.800781-447.738281c-7.964844-15.921875-27.328125-22.375-43.253907-14.414063-6.308593 3.15625-11.40625 8.292969-14.515624 14.625l-215.609376 447.300782c-7.964843 15.921874-1.519531 35.289062 14.40625 43.257812 4.480469 2.242188 9.421876 3.40625 14.433594 3.40625h431.40625c17.804688-.003906 32.234375-14.441406 32.230469-32.246094-.003906-4.921875-1.128906-9.773437-3.296875-14.191406zm-28.933594 14.199219-431.292968-.207031 215.492187-447.527344 215.882813 447.734375zm0 0"/>
    <path d="m231.835938 383.046875h32.238281v32.238281h-32.238281zm0 0"/>
    <path d="m231.835938 157.382812h32.238281v193.425782h-32.238281zm0 0"/>
  </g>
</svg>