<?xml version="1.0" encoding="iso-8859-1"?>
<!-- Generator: Adobe Illustrator 19.0.0, SVG Export Plug-In . SVG Version: 6.00 Build 0)  -->
<svg version="1.1" id="Layer_1"
  xmlns="http://www.w3.org/2000/svg"
  xmlns:xlink="http://www.w3.org/1999/xlink" x="0px" y="0px"
	 viewBox="0 0 512 512" style="enable-background:new 0 0 512 512;" xml:space="preserve">
  <path style="fill:#7F838C;" d="M300.774,343.933h-89.605c-9.281,0-16.801-7.52-16.801-16.801c0-9.281,7.52-16.801,16.801-16.801
	h89.605c9.281,0,16.801,7.52,16.801,16.801C317.575,336.412,310.055,343.933,300.774,343.933z"/>
  <path style="fill:#757982;" d="M300.774,310.331h-44.803v33.602h44.803c9.281,0,16.801-7.52,16.801-16.801
	C317.575,317.851,310.055,310.331,300.774,310.331z"/>
  <path style="fill:#7F838C;" d="M345.846,507.895l-89.873-77.031L166.1,507.895c-12.704,10.916-31.95-1.645-26.985-17.719
	l100.806-325.94c2.176-7.038,8.685-11.835,16.052-11.835s13.875,4.796,16.052,11.835l100.806,325.94
	C377.798,506.261,358.543,518.795,345.846,507.895z M281.786,408.736l41.75,35.784l-17.495-56.572L281.786,408.736z
	 M205.903,387.948l-17.495,56.572l41.75-35.784L205.903,387.948z M216.726,352.968l39.246,33.64l39.246-33.64l-39.246-126.904
	L216.726,352.968z"/>
  <path style="fill:#757982;" d="M295.218,352.968l-39.246,33.64v44.256l89.873,77.031c12.698,10.899,31.953-1.634,26.985-17.719
	l-100.806-325.94c-2.176-7.038-8.685-11.835-16.052-11.835v73.663L295.218,352.968z M323.537,444.52l-41.75-35.784l24.255-20.788
	L323.537,444.52z"/>
  <path style="fill:#57DEFF;" d="M58.09,266.283c-72.06-72.055-72.06-189.306,0-261.361c6.562-6.562,17.195-6.562,23.758,0
	c6.562,6.557,6.562,17.2,0,23.758c-58.957,58.957-58.957,154.889,0,213.846c6.562,6.557,6.562,17.2,0,23.758
	C75.285,272.847,64.654,272.847,58.09,266.283z"/>
  <path style="fill:#4EC9E6;" d="M430.096,266.283c-6.562-6.562-6.562-17.2,0-23.758c59-59,58.998-154.848,0-213.846
	c-6.562-6.557-6.562-17.195,0-23.758c6.552-6.562,17.195-6.562,23.758,0c72.133,72.122,72.138,189.235,0,261.361
	C447.291,272.847,436.659,272.847,430.096,266.283z"/>
  <path style="fill:#57DEFF;" d="M105.611,218.763c-45.858-45.853-45.858-120.467,0-166.319c6.562-6.562,17.195-6.562,23.758,0
	c6.562,6.557,6.562,17.2,0,23.758c-32.754,32.754-32.754,86.05,0,118.804c6.562,6.557,6.562,17.2,0,23.758
	C122.806,225.326,112.175,225.326,105.611,218.763z"/>
  <g>
    <path style="fill:#4EC9E6;" d="M382.575,218.763c-6.562-6.557-6.562-17.2,0-23.758c32.754-32.754,32.754-86.05,0-118.804
		c-6.562-6.557-6.562-17.2,0-23.758c6.562-6.562,17.195-6.562,23.758,0c45.858,45.853,45.858,120.467,0,166.319
		C399.77,225.326,389.138,225.326,382.575,218.763z"/>
    <path style="fill:#4EC9E6;" d="M335.055,171.242c-6.562-6.557-6.562-17.2,0-23.758c6.577-6.589,6.557-17.201,0-23.758
		c-6.562-6.562-6.562-17.2-0.006-23.763c6.562-6.562,17.2-6.557,23.763-0.006c19.705,19.705,19.704,51.58,0,71.284
		C352.249,177.805,341.617,177.805,335.055,171.242z"/>
  </g>
  <path style="fill:#57DEFF;" d="M150.009,171.242c-19.705-19.705-19.704-51.58,0-71.284c6.562-6.552,17.2-6.557,23.763,0.006
	c6.557,6.562,6.557,17.2-0.006,23.763c-6.557,6.557-6.578,17.168,0,23.758c6.562,6.557,6.562,17.2,0,23.758
	C167.203,177.805,156.572,177.805,150.009,171.242z"/>
  <path style="fill:#A1A7B3;" d="M255.972,187.124L255.972,187.124c-27.837,0-50.403-22.566-50.403-50.403l0,0
	c0-27.837,22.566-50.403,50.403-50.403l0,0c27.837,0,50.403,22.566,50.403,50.403l0,0
	C306.374,164.558,283.809,187.124,255.972,187.124z"/>
  <path style="fill:#979CA7;" d="M306.374,136.721c0-27.837-22.565-50.403-50.403-50.403v100.806
	C283.81,187.124,306.374,164.558,306.374,136.721z"/>
  <path style="fill:#5C5F66;" d="M423.981,511.869H87.962c-9.281,0-16.801-7.52-16.801-16.801s7.52-16.801,16.801-16.801h336.019
	c9.281,0,16.801,7.52,16.801,16.801S433.262,511.869,423.981,511.869z"/>
  <path style="fill:#53565C;" d="M423.981,478.267H255.972v33.602h168.009c9.281,0,16.801-7.52,16.801-16.801
	S433.262,478.267,423.981,478.267z"/>
</svg>
