<svg enable-background="new 0 0 58 58" height="512" viewBox="0 0 58 58" width="512"
  xmlns="http://www.w3.org/2000/svg">
  <g fill="#9eebf9">
    <path d="m44 30c-.552 0-1-.448-1-1 0-2.206 1.794-4 4-4h6c.551 0 1-.449 1-1v-5c0-.552.448-1 1-1s1 .448 1 1v5c0 1.654-1.346 3-3 3h-6c-1.103 0-2 .897-2 2 0 .552-.448 1-1 1z"/>
    <path d="m16 19h-5c-4.963 0-9-4.038-9-9 0-.552.448-1 1-1s1 .448 1 1c0 3.86 3.14 7 7 7h5c.552 0 1 .448 1 1s-.448 1-1 1z"/>
    <path d="m23 53h-8c-.552 0-1-.448-1-1s.448-1 1-1h8c2.757 0 5-2.243 5-5 0-.552.448-1 1-1s1 .448 1 1c0 3.86-3.14 7-7 7z"/>
    <path d="m16 41h-10c-.552 0-1-.448-1-1s.448-1 1-1h10c.552 0 1 .448 1 1s-.448 1-1 1z"/>
    <path d="m29 7c-.552 0-1-.448-1-1 0-1.103-.897-2-2-2h-5c-.552 0-1-.448-1-1s.448-1 1-1h5c2.206 0 4 1.794 4 4 0 .552-.448 1-1 1z"/>
    <path d="m29 13c-.552 0-1-.448-1-1v-6c0-.552.448-1 1-1s1 .448 1 1v6c0 .552-.448 1-1 1z"/>
    <path d="m37 15c-.552 0-1-.448-1-1 0-2.206 1.794-4 4-4h3c.551 0 1-.449 1-1v-3c0-.552.448-1 1-1s1 .448 1 1v3c0 1.654-1.346 3-3 3h-3c-1.103 0-2 .897-2 2 0 .552-.448 1-1 1z"/>
    <path d="m55 42c-.552 0-1-.448-1-1v-3c0-.551-.449-1-1-1h-9.525c-2.079 0-3.475-1.607-3.475-4 0-.552.448-1 1-1s1 .448 1 1c0 .602.144 2 1.475 2h9.525c1.654 0 3 1.346 3 3v3c0 .552-.448 1-1 1z"/>
    <path d="m42 50c-.552 0-1-.448-1-1 0-.551-.449-1-1-1-2.206 0-4-1.794-4-4 0-.552.448-1 1-1s1 .448 1 1c0 1.103.897 2 2 2 1.654 0 3 1.346 3 3 0 .552-.448 1-1 1z"/>
  </g>
  <circle cx="3" cy="7" fill="#5469e0" r="3"/>
  <circle cx="18" cy="3" fill="#5469e0" r="3"/>
  <circle cx="55" cy="16" fill="#5469e0" r="3"/>
  <circle cx="55" cy="44" fill="#5469e0" r="3"/>
  <circle cx="12" cy="52" fill="#5469e0" r="3"/>
  <circle cx="3" cy="40" fill="#5469e0" r="3"/>
  <circle cx="45" cy="3" fill="#5469e0" r="3"/>
  <circle cx="29" cy="29" fill="#5469e0" r="17"/>
  <path d="m42 53c-.552 0-1-.448-1-1v-3c0-.552.448-1 1-1s1 .448 1 1v3c0 .552-.448 1-1 1z" fill="#9eebf9"/>
  <path d="m21 27h16v12h-16z" fill="#9eebf9"/>
  <path d="m26 31h6v4h-6z" fill="#fff"/>
  <path d="m29 17c-3.314 0-6 2.686-6 6v4h4v-4c0-1.105.896-2 2-2s2 .895 2 2v4h4v-4c0-3.314-2.686-6-6-6z" fill="#fff"/>
  <circle cx="42" cy="55" fill="#5469e0" r="3"/>
</svg>