<?xml version="1.0" encoding="iso-8859-1"?>
<!-- Generator: Adobe Illustrator 19.0.0, SVG Export Plug-In . SVG Version: 6.00 Build 0)  -->
<svg version="1.1" id="Layer_1"
  xmlns="http://www.w3.org/2000/svg"
  xmlns:xlink="http://www.w3.org/1999/xlink" x="0px" y="0px"
	 viewBox="0 0 512.001 512.001" style="enable-background:new 0 0 512.001 512.001;" xml:space="preserve">
  <g>
    <g>
      <path d="M81.857,28.685c6.562-6.561,6.562-17.2,0-23.762c-6.561-6.561-17.2-6.561-23.762,0
			c-72.065,72.066-72.065,189.325,0,261.391c6.56,6.561,17.199,6.563,23.762,0c6.562-6.562,6.562-17.202,0-23.762
			C22.895,183.588,22.895,87.648,81.857,28.685z"/>
    </g>
  </g>
  <g>
    <g>
      <path d="M453.907,4.922c-6.561-6.563-17.201-6.563-23.763,0c-6.562,6.561-6.562,17.2,0,23.762
			c58.962,58.963,58.962,154.903,0,213.866c-6.562,6.561-6.562,17.2,0,23.762c6.562,6.562,17.201,6.562,23.763,0
			C525.972,194.247,525.972,76.988,453.907,4.922z"/>
    </g>
  </g>
  <g>
    <g>
      <path d="M129.382,76.211c6.562-6.562,6.562-17.202,0-23.763c-6.562-6.562-17.2-6.562-23.763,0
			c-45.911,45.91-45.912,120.428,0,166.339c6.562,6.562,17.201,6.562,23.763,0c6.562-6.561,6.562-17.2,0-23.762
			C96.606,162.248,96.606,108.988,129.382,76.211z"/>
    </g>
  </g>
  <g>
    <g>
      <path d="M406.381,52.449c-6.561-6.561-17.2-6.561-23.763,0c-6.562,6.561-6.562,17.2,0,23.763
			c32.777,32.777,32.777,86.037,0,118.814c-6.562,6.561-6.562,17.2,0,23.762c6.56,6.561,17.199,6.563,23.763,0
			C452.292,172.877,452.293,98.359,406.381,52.449z"/>
    </g>
  </g>
  <g>
    <g>
      <path d="M358.856,99.974c-6.561-6.561-17.201-6.561-23.763,0c-6.562,6.561-6.562,17.2,0,23.762c6.568,6.568,6.568,17.195,0,23.763
			c-6.562,6.562-6.562,17.202,0,23.763c6.562,6.562,17.2,6.562,23.763,0C378.557,151.56,378.559,119.675,358.856,99.974z"/>
    </g>
  </g>
  <g>
    <g>
      <path d="M173.786,147.498c-6.551-6.552-6.551-17.211,0-23.762c6.561-6.562,6.561-17.201,0-23.763
			c-6.562-6.563-17.2-6.561-23.763,0c-19.653,19.654-19.653,51.634,0,71.287c6.56,6.561,17.2,6.563,23.763,0
			C180.348,164.7,180.348,154.062,173.786,147.498z"/>
    </g>
  </g>
  <g>
    <g>
      <path d="M424.028,478.395h-54.82l-91.887-297.099c31.714-14.764,38.95-56.695,14.323-81.321
			c-19.654-19.654-51.635-19.654-71.288,0c-24.636,24.635-17.379,66.561,14.323,81.321l-91.887,297.1H87.972
			c-9.28,0-16.803,7.523-16.803,16.803s7.523,16.803,16.803,16.803h336.056c9.28,0,16.803-7.523,16.803-16.803
			S433.308,478.395,424.028,478.395z M256.001,118.815c9.285,0,16.803,7.514,16.803,16.803c0,9.285-7.514,16.803-16.803,16.803
			c-9.287,0-16.803-7.514-16.803-16.803C239.198,126.33,246.713,118.815,256.001,118.815z M256,226.091l26.065,84.275h-52.129
			L256,226.091z M219.543,343.972h72.916l2.794,9.034L256,386.651l-39.252-33.645L219.543,343.972z M205.927,387.993l24.254,20.789
			l-41.752,35.787L205.927,387.993z M200.606,478.395L256,430.913l55.394,47.481H200.606z M281.819,408.783l24.254-20.79
			l17.498,56.576L281.819,408.783z"/>
    </g>
  </g>
</svg>
